<?xml version="1.0" encoding="UTF-8"?>
<svg width="226px" height="220px" viewBox="0 0 226 220" version="1.1" xmlns="http://www.w3.org/2000/svg" xmlns:xlink="http://www.w3.org/1999/xlink">
    <title>privacy_policy</title>
    <defs>
        <path d="M7.04210705,0 L184.042107,0 C178.652511,26.9029411 175.988916,48.1422509 176.051323,63.7179295 C176.11373,79.2936081 178.944099,99.6785184 184.542431,124.87266 L145.059922,165.086234 L7.04210705,165 C2.34736902,128.384907 0,100.733697 0,82.0463698 C0,63.3590428 2.34736902,36.0102528 7.04210705,0 Z" id="path-1"></path>
    </defs>
    <g id="privacy_policy" stroke="none" stroke-width="1" fill="none" fill-rule="evenodd">
        <g id="Group" transform="translate(114.3846, 111.4975) rotate(-17) translate(-114.3846, -111.4975)translate(22.1134, 28.9544)">
            <mask id="mask-2" fill="white">
                <use xlink:href="#path-1"></use>
            </mask>
            <use id="Rectangle" fill="#ECE6C1" xlink:href="#path-1"></use>
            <path d="M159.093764,119.183605 C166.669331,118.958333 172.159452,119.242576 175.564127,120.036334 C178.968802,120.830091 181.794795,122.484647 184.042107,125 L184.042107,165 L145.042107,165 C150.215379,152.719572 153.587657,144.01772 155.158939,138.894444 C156.730222,133.771168 158.04183,127.200889 159.093764,119.183605 Z" id="Rectangle" fill="#C1BC9B" mask="url(#mask-2)"></path>
            <path d="M27.1160144,47.6357266 C33.6545591,56.6906668 40.1931038,65.745607 46.7316485,74.8005472" id="Path" stroke="#A02929" stroke-width="2" stroke-linecap="round" mask="url(#mask-2)"></path>
            <path d="M23.826972,54.4452841 C26.5869417,15.167441 77.0887025,53.7515983 31.8152064,65.7976439" id="Path-2" stroke="#A02929" stroke-width="2" stroke-linecap="round" mask="url(#mask-2)"></path>
            <path d="M52.6418404,62.8067753 C65.4028296,77.6387986 31.3160749,64.9286871 62.0624777,54.175426" id="Path-3" stroke="#A02929" stroke-width="2" stroke-linecap="round" mask="url(#mask-2)"></path>
            <path d="M66.5767881,51.3597949 C69.3392912,54.6938431 72.1017943,58.0278912 74.8642973,61.3619394" id="Path-4" stroke="#A02929" stroke-width="2" stroke-linecap="round" mask="url(#mask-2)"></path>
            <path d="M60.9105312,42.651293 C60.8167032,44.1888169 60.7228753,45.7263405 60.6290474,47.2638644" id="Path-5" stroke="#A02929" stroke-width="2" stroke-linecap="round" mask="url(#mask-2)"></path>
            <path d="M71.8974728,46.9862851 C91.7947306,55.8469005 88.8992158,58.3624667 79.204662,38.09732" id="Path-6" stroke="#A02929" stroke-width="2" stroke-linecap="round" mask="url(#mask-2)"></path>
            <path d="M95.3031424,33.4043959 C81.8283148,33.0654857 85.4614261,56.8736461 95.188441,52.8788917 C111.937925,46.0001034 63.2817515,13.8476554 107.124378,45.73094" id="Path-7" stroke="#A02929" stroke-width="2" stroke-linecap="round" mask="url(#mask-2)"></path>
            <path d="M114.071463,26.2360992 C110.047469,28.4981522 105.327755,29.823508 101.999481,33.0222584 C94.8750846,39.869401 116.497815,43.2383982 121.728334,37.8889668 C122.611431,36.9857927 122.449443,35.4677399 122.809998,34.2571264" id="Path-8" stroke="#A02929" stroke-width="2" stroke-linecap="round" mask="url(#mask-2)"></path>
            <path d="M121.388017,20.7595679 C122.437644,22.8060713 127.052009,36.5495062 134.207128,29.656445 C140.727893,23.3745046 136.202059,15.2391645 131.789855,10.7995226 C131.177659,10.1835194 128.686285,9.52119023 129.26108,10.1722317 C135.341146,17.0588201 158.480327,34.6131964 158.884672,46.7135793 C159.071197,52.2955161 140.603401,48.5302856 137.072492,47.6148678" id="Path-9" stroke="#A02929" stroke-width="2" stroke-linecap="round" mask="url(#mask-2)"></path>
            <path d="M34.5742829,124.800804 C34.6009105,113.715378 51.2047479,115.720973 48.5716162,127.862454 C47.849,131.194468 39.8161675,129.767288 39.3034934,129.457588 C36.6075324,127.828994 31.8003161,119.468028 33.0834871,122.344484 C37.6631169,132.610538 43.9056427,142.050839 49.3167205,151.904017" id="Path-10" stroke="#A02929" stroke-width="2" stroke-linecap="round" mask="url(#mask-2)"></path>
            <path d="M57.650351,112.125458 C47.0073065,114.633236 54.0181914,131.894193 66.3383317,128.271909 C80.0259819,124.24756 64.6166319,112.724158 53.2005106,114.162223" id="Path-11" stroke="#A02929" stroke-width="2" stroke-linecap="round" mask="url(#mask-2)"></path>
            <path d="M60.0399105,91.8414173 C65.7158359,101.623803 71.3917614,111.406189 77.0676869,121.188574" id="Path-12" stroke="#A02929" stroke-width="2" stroke-linecap="round" mask="url(#mask-2)"></path>
            <path d="M80.251349,108.65215 C82.9846801,112.208022 85.7180112,115.763894 88.4513422,119.319766" id="Path-13" stroke="#A02929" stroke-width="2" stroke-linecap="round" mask="url(#mask-2)"></path>
            <path d="M75.5418671,99.4724684 C76.214927,100.620682 76.887987,101.768895 77.5610469,102.917108" id="Path-14" stroke="#A02929" stroke-width="2" stroke-linecap="round" mask="url(#mask-2)"></path>
            <path d="M96.9987278,95.5696984 C70.8252546,99.9463255 97.0975095,130.871517 108.161964,102.713158" id="Path-15" stroke="#A02929" stroke-width="2" stroke-linecap="round" mask="url(#mask-2)"></path>
            <path d="M110.191037,88.192197 C118.10127,97.6764307 124.624444,99.0767143 124.515271,81.9347007 C124.505025,80.3258085 121.668037,76.2175292 122.063179,77.7771772 L120.279567,77.3567717 C120.672743,78.9086597 122.025508,80.0423558 122.965407,81.3383237 L144.728119,107.363836 C145.445544,108.353048 145.418571,110.223657 144.493666,111.022275 C135.661481,118.64851 128.733791,117.014147 120.620413,110.981673" id="Path-16" stroke="#A02929" stroke-width="2" stroke-linecap="round" mask="url(#mask-2)"></path>
        </g>
    </g>
</svg>