<?xml version="1.0" encoding="UTF-8"?>
<svg width="600px" height="720px" viewBox="0 0 600 720" version="1.1" xmlns="http://www.w3.org/2000/svg" xmlns:xlink="http://www.w3.org/1999/xlink">
    <!-- Generator: Sketch 62 (91390) - https://sketch.com -->
    <title>television</title>
    <desc>Created with Sketch.</desc>
    <defs>
        <linearGradient x1="-0.786387832%" y1="28.0916399%" x2="-0.365512158%" y2="71.9083737%" id="linearGradient-1">
            <stop stop-color="#999A9E" offset="0%"></stop>
            <stop stop-color="#000000" offset="100%"></stop>
        </linearGradient>
        <linearGradient x1="-0.480911524%" y1="83.8977277%" x2="89.1870639%" y2="23.6860537%" id="linearGradient-2">
            <stop stop-color="#1F1D22" offset="0%"></stop>
            <stop stop-color="#DCDCDC" offset="24.4665197%"></stop>
            <stop stop-color="#808080" offset="100%"></stop>
        </linearGradient>
        <linearGradient x1="14.2843464%" y1="14.3631218%" x2="83.6496783%" y2="87.1862206%" id="linearGradient-3">
            <stop stop-color="#7F8488" offset="0%"></stop>
            <stop stop-color="#ABAEB1" offset="100%"></stop>
        </linearGradient>
    </defs>
    <g id="television" stroke="none" stroke-width="1" fill="none" fill-rule="evenodd">
        <g id="Blank_television_set" transform="translate(0.000000, 163.000000)">
            <rect id="Rectangle" fill="url(#linearGradient-1)" fill-rule="nonzero" x="0" y="0" width="600" height="395"></rect>
            <rect id="Rectangle" fill="#121212" fill-rule="nonzero" x="9" y="9" width="586" height="382"></rect>
            <path d="M572.940419,17 C580.729459,17 587,23.2524484 587,31.018917 L587,372.981039 C587,380.747552 580.729459,387 572.940419,387 L469,387 L469.502154,17 L572.940419,17 Z" id="Path" fill="#1E1B22" fill-rule="nonzero"></path>
            <path d="M30.9933874,17 C23.2283453,17 17,23.2294575 17,30.9955931 L17,372.868527 C17,380.634837 23.2283453,387 30.9933874,387 L468.456567,387 L469,17 L30.9933874,17 Z" id="Path" fill="url(#linearGradient-2)" fill-rule="nonzero"></path>
            <path d="M427.517386,56.561082 C443.130099,69.4087596 444,153.477168 444,205.254205 C444,256.029743 443.672684,326.11146 428.64305,341.138791 C413.37353,356.405927 300.121158,366 245.665788,366 C196.933997,366 72.141947,360.946849 54.2640732,343.071722 C36.6374392,325.447884 40.3197822,264.809284 40.3197822,205.254205 C40.3197822,146.1997 39.1850706,74.0584505 55.2117903,58.0342328 C71.4920117,41.756553 189.047649,39 245.665788,39 C296.328376,39 411.060653,43.0188188 427.517386,56.561082 Z" id="Path" stroke="#000000" fill="#000000"></path>
            <rect id="Rectangle" x="0" y="0" width="600" height="395"></rect>
            <path d="M575,182.5 C575,209.28581 553.28581,231 526.5,231 C499.71419,231 478,209.28581 478,182.5 C478,155.71419 499.71419,134 526.5,134 C553.28581,134 575,155.71419 575,182.5 L575,182.5 Z" id="Path" stroke="#000000" stroke-width="0.999998286" fill="url(#linearGradient-3)" fill-rule="nonzero" stroke-linecap="round"></path>
            <path d="M552,182.5 C552,196.583261 540.583261,208 526.5,208 C512.416739,208 501,196.583261 501,182.5 C501,168.416739 512.416739,157 526.5,157 C540.583261,157 552,168.416739 552,182.5 Z" id="Path" stroke="#000000" stroke-width="1.00000206" fill="#1E1B22" fill-rule="nonzero" stroke-linecap="round"></path>
            <path d="M523.851427,220 C507.255448,218.822929 493.418497,206.837065 489.867062,190.562012 C486.315626,174.286959 493.899016,157.61483 508.492315,149.61428 C523.085614,141.61373 541.198893,144.198059 552.979596,155.961544 C564.760299,167.72503 567.391118,185.854481 559.441043,200.488545" id="Path" stroke="#7F7F7F" stroke-width="3" stroke-linecap="round"></path>
            <polygon id="Path" stroke="#000000" stroke-width="0.81893212" fill="#A8ACAB" fill-rule="nonzero" stroke-linecap="round" points="513 169.311414 524.420891 164 539 195.688586 527.579109 201"></polygon>
            <path d="M575,73.5 C575,100.28581 553.28581,122 526.5,122 C499.71419,122 478,100.28581 478,73.5 C478,46.7141896 499.71419,25 526.5,25 C553.28581,25 575,46.7141896 575,73.5 L575,73.5 Z" id="Path" stroke="#000000" stroke-width="0.999998286" fill="url(#linearGradient-3)" fill-rule="nonzero" stroke-linecap="round"></path>
            <path d="M552,73.5 C552,87.5832611 540.583261,99 526.5,99 C512.416739,99 501,87.5832611 501,73.5 C501,59.4167389 512.416739,48 526.5,48 C540.583261,48 552,59.4167389 552,73.5 Z" id="Path" stroke="#000000" stroke-width="1.00000206" fill="#1E1B22" fill-rule="nonzero" stroke-linecap="round"></path>
            <polygon id="Path" stroke="#000000" stroke-width="0.81893212" fill="#A8ACAB" fill-rule="nonzero" stroke-linecap="round" points="508 70.1708909 514.410482 59 545 76.8291091 538.589518 88"></polygon>
            <path d="M526.499957,105.000018 L526.499957,116 M542.250006,100.779818 L547.750006,110.306078 M553.77981,89.2499764 L563.306075,94.7499764 M558.000012,73.4999783 L569,73.4999783 M553.77981,57.7499891 L563.306075,52.2499891 M542.250006,46.2201824 L547.750006,36.6939224 M526.5,41.9999821 L526.5,31 M510.75,46.2201824 L505.25,36.6939224 M499.22019,57.7499891 L489.693925,52.2499891 M494.999988,73.4999783 L484,73.4999783 M499.22019,89.2499764 L489.693925,94.7499764 M510.75,100.779774 L505.25,110.306034" id="Shape" stroke="#7F7F7F" stroke-width="2.5"></path>
        </g>
    </g>
</svg>